<svg width="46" height="71" viewBox="0 0 46 71" fill="none" xmlns="http://www.w3.org/2000/svg">
<path fill-rule="evenodd" clip-rule="evenodd" d="M25.5812 24.5223V1.80529C19.4612 2.091 13.916 4.59485 9.71922 8.53739L25.5812 24.5223ZM43.4886 8.25394L27.3454 24.5223V1.78473C33.5491 1.92908 39.194 4.35139 43.4886 8.25394ZM25.5812 28.8145L9.4173 45.1037C13.6483 49.2123 19.3133 51.8315 25.5812 52.1242V28.8145ZM27.3454 52.1447V28.8145L43.7954 45.3921C39.4646 49.4605 33.6979 51.9969 27.3454 52.1447ZM24.3337 25.7795L8.47173 9.79455C4.55951 14.0239 2.07492 19.612 1.7914 25.7795H24.3337ZM24.3337 27.5574H1.771C1.91424 33.8091 4.31792 39.4978 8.19045 43.8257L24.3337 27.5574ZM45.8539 8.07709L37.9307 16.001L27.3454 26.9647L46 45.7012C41.1346 50.7747 34.3116 53.9294 26.7573 53.9294C11.9797 53.9294 0 41.8569 0 26.9647C0 12.0725 11.9797 0 26.7573 0C34.2362 0 40.9985 3.09217 45.8539 8.07709Z" fill="#252523"/>
<path d="M8.73955 61.063C8.06954 61.063 7.55077 61.3177 7.18322 61.827C6.81568 62.3324 6.6319 63.0384 6.6319 63.9451C6.6319 65.8318 7.33445 66.7752 8.73955 66.7752C9.32915 66.7752 10.0432 66.6266 10.8816 66.3296V67.8343C10.1925 68.1237 9.42295 68.2683 8.573 68.2683C7.35168 68.2683 6.4175 67.896 5.77047 67.1514C5.12343 66.4029 4.79992 65.3303 4.79992 63.9336C4.79992 63.0539 4.9588 62.2842 5.27658 61.6244C5.59435 60.9608 6.04996 60.4534 6.64339 60.1023C7.24065 59.7473 7.93937 59.5699 8.73955 59.5699C9.55504 59.5699 10.3744 59.7686 11.1975 60.166L10.6232 61.6244C10.3093 61.4739 9.99341 61.3427 9.67564 61.2308C9.35787 61.119 9.04584 61.063 8.73955 61.063Z" fill="#252523"/>
<path d="M10.9699 61.6823H12.888L14.0997 65.3225C14.2031 65.6389 14.2739 66.0132 14.3122 66.4453H14.3467C14.3888 66.0479 14.4711 65.6737 14.5936 65.3225L15.7824 61.6823H17.6603L14.9439 68.9802C14.6951 69.6554 14.339 70.1608 13.8758 70.4965C13.4163 70.8322 12.8784 71 12.262 71C11.9596 71 11.6628 70.9672 11.3719 70.9016V69.5011C11.5824 69.5512 11.8122 69.5763 12.061 69.5763C12.3711 69.5763 12.641 69.4798 12.8708 69.2869C13.1043 69.0979 13.2862 68.8104 13.4163 68.4246L13.5197 68.1063L10.9699 61.6823Z" fill="#252523"/>
<path d="M20.5453 68.2683C18.5468 68.2683 17.5476 67.1629 17.5476 64.9522C17.5476 63.8525 17.8194 63.0134 18.363 62.4346C18.9067 61.852 19.6858 61.5607 20.7004 61.5607C21.4432 61.5607 22.1093 61.7073 22.6989 62.0006L22.1821 63.3664C21.9064 63.2545 21.6499 63.1638 21.4125 63.0944C21.1751 63.0211 20.9378 62.9844 20.7004 62.9844C19.7892 62.9844 19.3336 63.6365 19.3336 64.9406C19.3336 66.2061 19.7892 66.8389 20.7004 66.8389C21.0373 66.8389 21.3494 66.7945 21.6365 66.7057C21.9236 66.6131 22.2108 66.4704 22.4979 66.2775V67.788C22.2146 67.9693 21.9275 68.0947 21.6365 68.1642C21.3494 68.2336 20.9856 68.2683 20.5453 68.2683Z" fill="#252523"/>
<path d="M25.0958 68.1526H23.3442V59.1474H25.0958V68.1526Z" fill="#252523"/>
<path d="M27.6879 64.9059C27.6879 65.5463 27.7913 66.0305 27.998 66.3585C28.2086 66.6864 28.5493 66.8504 29.0203 66.8504C29.4873 66.8504 29.8224 66.6884 30.0253 66.3643C30.232 66.0363 30.3354 65.5502 30.3354 64.9059C30.3354 64.2654 30.232 63.785 30.0253 63.4648C29.8185 63.1445 29.4797 62.9844 29.0088 62.9844C28.5417 62.9844 28.2048 63.1445 27.998 63.4648C27.7913 63.7812 27.6879 64.2615 27.6879 64.9059ZM32.1272 64.9059C32.1272 65.9592 31.8515 66.7829 31.3002 67.3771C30.7489 67.9713 29.9812 68.2683 28.9973 68.2683C28.3809 68.2683 27.8372 68.1333 27.3663 67.8632C26.8954 67.5893 26.5336 67.1977 26.2809 66.6884C26.0282 66.1791 25.9019 65.5849 25.9019 64.9059C25.9019 63.8487 26.1756 63.0269 26.7231 62.4404C27.2706 61.854 28.0401 61.5607 29.0317 61.5607C29.6481 61.5607 30.1918 61.6958 30.6627 61.9658C31.1336 62.2359 31.4954 62.6237 31.7481 63.1291C32.0008 63.6345 32.1272 64.2268 32.1272 64.9059Z" fill="#252523"/>
<path d="M38.8542 68.1526H37.1026V64.3734C37.1026 63.9066 37.0203 63.5574 36.8556 63.3259C36.691 63.0905 36.4288 62.9729 36.0689 62.9729C35.5788 62.9729 35.2247 63.1388 35.0064 63.4706C34.7882 63.7985 34.6791 64.3445 34.6791 65.1084V68.1526H32.9275V61.6823H34.2656L34.5011 62.5099H34.5987C34.7939 62.1973 35.0619 61.962 35.4027 61.8038C35.7473 61.6418 36.1378 61.5607 36.5742 61.5607C37.3208 61.5607 37.8875 61.7652 38.2741 62.1742C38.6608 62.5793 38.8542 63.1658 38.8542 63.9336V68.1526Z" fill="#252523"/>
<path d="M42.6695 62.8166C42.2982 62.8166 42.0072 62.9362 41.7966 63.1754C41.586 63.4108 41.4654 63.7464 41.4348 64.1824H43.8928C43.8851 63.7464 43.7722 63.4108 43.5539 63.1754C43.3357 62.9362 43.0409 62.8166 42.6695 62.8166ZM42.9165 68.2683C41.8828 68.2683 41.0749 67.9809 40.493 67.406C39.911 66.8311 39.62 66.017 39.62 64.9637C39.62 63.8795 39.8881 63.0423 40.4241 62.452C40.9639 61.8578 41.7085 61.5607 42.658 61.5607C43.5654 61.5607 44.2718 61.8212 44.7772 62.342C45.2825 62.8629 45.5352 63.5825 45.5352 64.5007V65.3573H41.3946C41.4137 65.8588 41.5611 66.2505 41.8368 66.5321C42.1125 66.8138 42.4992 66.9546 42.9969 66.9546C43.3836 66.9546 43.7492 66.9141 44.0938 66.8331C44.4383 66.752 44.7982 66.6228 45.1734 66.4453V67.8111C44.8671 67.9655 44.5398 68.0793 44.1914 68.1526C43.843 68.2298 43.418 68.2683 42.9165 68.2683Z" fill="#252523"/>
</svg>
